<?xml version="1.0" standalone="no"?>
<!DOCTYPE svg PUBLIC "-//W3C//DTD SVG 20010904//EN"
 "http://www.w3.org/TR/2001/REC-SVG-20010904/DTD/svg10.dtd">
<svg version="1.0" xmlns="http://www.w3.org/2000/svg"
 width="1536.000000pt" height="1536.000000pt" viewBox="0 0 1536.000000 1536.000000"
 preserveAspectRatio="xMidYMid meet">
<metadata>
Created by potrace 1.11, written by Peter Selinger 2001-2013
</metadata>
<g transform="translate(0.000000,1536.000000) scale(0.100000,-0.100000)"
fill="#000000" stroke="none">
<path d="M7310 14691 c-133 -4 -213 -11 -227 -19 -14 -7 -63 -12 -132 -12 -62
0 -112 -4 -116 -10 -3 -5 -40 -10 -81 -10 -41 0 -74 -4 -74 -9 0 -5 -33 -12
-72 -14 -103 -7 -210 -25 -222 -37 -5 -5 -31 -10 -57 -10 -26 0 -51 -4 -54
-10 -3 -5 -28 -10 -56 -10 -27 0 -49 -4 -49 -10 0 -5 -18 -10 -39 -10 -22 0
-43 -4 -46 -10 -3 -5 -18 -10 -33 -10 -15 0 -40 -7 -56 -15 -15 -8 -44 -15
-62 -15 -19 0 -34 -4 -34 -10 0 -5 -20 -10 -45 -10 -25 0 -45 -4 -45 -10 0 -5
-17 -10 -39 -10 -22 0 -44 -6 -51 -15 -7 -8 -16 -12 -22 -9 -5 3 -20 -1 -33
-10 -13 -9 -35 -16 -49 -16 -14 0 -28 -4 -31 -10 -3 -5 -19 -10 -35 -10 -16 0
-32 -4 -35 -10 -3 -5 -18 -10 -33 -10 -15 0 -36 -7 -46 -15 -11 -8 -28 -15
-38 -15 -10 0 -18 -4 -18 -10 0 -5 -13 -10 -29 -10 -17 0 -33 -4 -36 -10 -3
-5 -19 -10 -36 -10 -16 0 -29 -4 -29 -10 0 -5 -8 -10 -19 -10 -10 0 -39 -11
-65 -25 -26 -14 -58 -25 -72 -25 -13 0 -24 -4 -24 -10 0 -5 -11 -10 -25 -10
-14 0 -25 -4 -25 -10 0 -5 -9 -10 -19 -10 -21 0 -84 -30 -89 -42 -2 -5 -15 -8
-28 -8 -13 0 -24 -4 -24 -10 0 -5 -11 -10 -24 -10 -14 0 -28 -4 -31 -10 -3 -5
-15 -10 -26 -10 -10 0 -19 -4 -19 -8 0 -9 -70 -42 -88 -42 -7 0 -12 -4 -12
-10 0 -5 -9 -10 -20 -10 -11 0 -20 -4 -20 -10 0 -5 -9 -10 -20 -10 -11 0 -20
-4 -20 -8 0 -9 -70 -42 -88 -42 -7 0 -12 -4 -12 -10 0 -5 -9 -10 -20 -10 -11
0 -20 -4 -20 -10 0 -5 -9 -10 -20 -10 -11 0 -20 -4 -20 -8 0 -4 -29 -21 -65
-37 -36 -17 -65 -33 -65 -36 0 -4 -8 -9 -17 -13 -10 -3 -45 -22 -78 -41 -33
-20 -68 -38 -77 -41 -10 -4 -18 -10 -18 -15 0 -5 -18 -17 -40 -26 -22 -10 -40
-21 -40 -25 0 -5 -5 -8 -11 -8 -7 0 -34 -16 -60 -35 -27 -19 -54 -35 -59 -35
-6 0 -10 -4 -10 -10 0 -5 -7 -10 -15 -10 -8 0 -15 -4 -15 -8 0 -5 -16 -17 -35
-28 -19 -10 -35 -22 -35 -26 0 -5 -5 -8 -11 -8 -11 0 -119 -71 -142 -95 -9 -8
-20 -15 -26 -15 -6 0 -27 -16 -47 -35 -19 -19 -40 -35 -45 -35 -5 0 -23 -13
-41 -30 -17 -16 -34 -30 -38 -30 -4 0 -16 -8 -28 -17 -54 -46 -63 -53 -70 -53
-4 0 -27 -19 -52 -43 -25 -23 -63 -56 -85 -72 -21 -17 -59 -49 -83 -72 -24
-24 -47 -43 -53 -43 -14 0 -627 -618 -643 -649 -8 -14 -33 -43 -56 -65 -22
-21 -53 -55 -68 -75 -15 -20 -42 -52 -59 -71 -18 -19 -33 -40 -33 -47 0 -6 -3
-13 -7 -15 -8 -3 -45 -48 -78 -93 -11 -16 -25 -33 -31 -40 -6 -6 -18 -24 -27
-41 -8 -16 -24 -38 -36 -48 -12 -11 -21 -23 -21 -28 0 -5 -7 -16 -15 -25 -24
-23 -95 -131 -95 -142 0 -6 -4 -11 -8 -11 -5 0 -14 -10 -19 -22 -6 -13 -18
-32 -27 -43 -34 -43 -106 -155 -106 -165 0 -5 -4 -10 -10 -10 -5 0 -10 -7 -10
-15 0 -8 -4 -15 -10 -15 -5 0 -10 -9 -10 -20 0 -10 -6 -23 -12 -27 -7 -4 -19
-19 -27 -32 -51 -92 -60 -109 -54 -115 4 -3 1 -6 -5 -6 -10 0 -16 -9 -69 -112
-14 -27 -29 -50 -34 -54 -5 -3 -9 -14 -9 -25 0 -10 -4 -19 -10 -19 -5 0 -10
-6 -10 -13 0 -17 -49 -115 -61 -123 -5 -3 -9 -14 -9 -25 0 -10 -4 -19 -10 -19
-5 0 -10 -6 -10 -13 0 -7 -25 -62 -55 -122 -30 -59 -55 -113 -55 -120 0 -7
-11 -33 -25 -59 -14 -26 -25 -54 -25 -62 0 -7 -4 -14 -10 -14 -5 0 -10 -9 -10
-20 0 -11 -4 -28 -9 -38 -21 -41 -32 -69 -35 -85 -1 -9 -8 -23 -14 -29 -7 -7
-12 -25 -12 -40 0 -15 -4 -28 -10 -28 -5 0 -10 -9 -10 -19 0 -11 -4 -23 -10
-26 -5 -3 -10 -14 -10 -24 0 -10 -7 -32 -16 -49 -8 -18 -13 -36 -10 -41 3 -5
-1 -14 -9 -21 -8 -7 -15 -23 -15 -36 0 -12 -4 -26 -10 -29 -5 -3 -10 -19 -10
-35 0 -16 -5 -32 -10 -35 -6 -3 -10 -19 -10 -34 0 -15 -7 -42 -16 -59 -8 -18
-13 -36 -10 -41 3 -5 -1 -14 -9 -21 -9 -7 -15 -29 -15 -51 0 -22 -4 -39 -10
-39 -5 0 -10 -16 -10 -35 0 -19 -4 -35 -10 -35 -5 0 -10 -15 -10 -34 0 -18 -7
-47 -15 -62 -8 -16 -15 -41 -15 -56 0 -15 -4 -30 -10 -33 -5 -3 -10 -26 -10
-50 0 -24 -5 -47 -10 -50 -6 -3 -10 -26 -10 -51 0 -24 -4 -44 -10 -44 -5 0
-10 -23 -10 -51 0 -28 -4 -58 -10 -68 -13 -25 -31 -123 -37 -201 -2 -36 -9
-69 -14 -75 -5 -5 -9 -41 -9 -80 0 -39 -4 -75 -9 -80 -5 -6 -12 -55 -14 -110
-2 -55 -10 -120 -17 -145 -19 -65 -19 -1174 0 -1240 7 -25 15 -83 17 -130 2
-47 8 -94 13 -105 5 -11 11 -54 14 -95 3 -41 9 -104 15 -140 5 -36 15 -96 20
-134 6 -38 15 -74 21 -80 5 -5 10 -31 10 -57 0 -26 5 -51 10 -54 6 -3 10 -28
10 -56 0 -27 4 -49 9 -49 5 0 11 -19 14 -42 10 -79 26 -151 37 -162 5 -5 10
-22 10 -37 0 -15 5 -31 10 -34 6 -3 10 -24 10 -46 0 -21 5 -39 10 -39 6 0 10
-17 10 -39 0 -21 6 -44 14 -50 7 -6 14 -23 14 -38 0 -15 5 -29 11 -31 6 -2 11
-17 11 -32 0 -16 5 -32 10 -35 6 -3 10 -19 10 -35 0 -16 5 -32 10 -35 6 -3 10
-16 10 -29 0 -21 15 -61 41 -108 5 -10 9 -27 9 -37 0 -11 5 -23 10 -26 6 -3
10 -19 10 -36 0 -16 5 -29 10 -29 6 0 10 -10 10 -22 0 -13 7 -32 15 -42 8 -11
15 -28 15 -38 0 -10 5 -18 10 -18 6 0 10 -9 10 -20 0 -11 5 -29 10 -40 6 -11
15 -29 20 -40 6 -11 10 -26 10 -33 0 -7 16 -44 35 -81 19 -38 35 -75 35 -82 0
-13 5 -26 31 -74 41 -76 59 -116 59 -127 0 -7 5 -13 10 -13 6 0 10 -9 10 -19
0 -11 4 -22 9 -25 12 -8 61 -106 61 -123 0 -7 5 -13 10 -13 6 0 10 -8 10 -18
0 -10 5 -23 10 -28 14 -14 49 -74 56 -96 4 -10 10 -18 15 -18 5 0 9 -8 9 -18
0 -10 5 -23 10 -28 14 -14 49 -74 56 -96 4 -10 10 -18 15 -18 5 0 9 -6 9 -14
0 -7 6 -19 13 -25 8 -6 24 -32 37 -58 13 -27 43 -76 67 -110 24 -34 43 -66 43
-72 0 -6 4 -11 8 -11 4 0 21 -22 37 -50 16 -27 33 -50 37 -50 4 0 8 -6 8 -14
0 -7 7 -19 15 -26 9 -7 36 -43 60 -79 25 -36 58 -82 75 -101 16 -19 30 -39 30
-43 0 -5 16 -25 35 -45 19 -20 35 -41 35 -46 0 -5 17 -28 37 -51 21 -23 61
-71 88 -105 60 -75 121 -146 155 -180 14 -14 38 -43 54 -65 38 -52 449 -462
501 -501 22 -16 63 -51 92 -78 28 -26 62 -55 75 -64 13 -8 46 -36 74 -61 76
-68 144 -124 173 -142 14 -9 36 -26 48 -38 12 -11 26 -21 32 -21 5 0 19 -11
32 -25 13 -13 30 -25 37 -25 6 0 12 -4 12 -10 0 -5 6 -10 14 -10 8 0 16 -4 18
-8 3 -8 86 -68 173 -125 22 -15 45 -31 52 -37 7 -5 15 -10 18 -10 4 0 35 -20
69 -45 35 -25 69 -45 75 -45 6 0 11 -4 11 -10 0 -5 7 -10 15 -10 8 0 15 -4 15
-10 0 -5 9 -10 20 -10 11 0 20 -4 20 -9 0 -5 12 -16 28 -24 38 -20 71 -39 112
-65 19 -12 67 -38 105 -58 80 -41 154 -81 205 -112 19 -12 51 -28 70 -37 19
-9 43 -21 52 -26 10 -5 24 -9 31 -9 18 0 75 -28 82 -41 4 -5 15 -9 26 -9 10 0
19 -4 19 -10 0 -5 6 -10 13 -10 7 0 33 -10 57 -21 24 -12 50 -22 57 -23 7 -1
19 -8 25 -14 7 -7 20 -12 29 -12 10 0 21 -4 24 -10 3 -5 15 -10 26 -10 10 0
27 -4 37 -9 9 -4 31 -15 47 -23 17 -9 35 -14 41 -11 6 2 17 -3 24 -12 7 -8 21
-15 31 -15 10 0 21 -4 24 -10 3 -5 17 -10 30 -10 13 0 27 -4 30 -10 3 -5 16
-10 29 -10 12 0 26 -4 32 -9 5 -6 22 -12 38 -15 16 -3 34 -10 40 -16 5 -5 20
-10 32 -10 13 0 26 -4 29 -10 3 -5 19 -10 35 -10 16 0 32 -4 35 -10 3 -5 16
-10 29 -10 12 0 26 -4 32 -9 5 -6 22 -12 38 -15 16 -3 34 -10 40 -16 5 -5 20
-10 32 -10 13 0 26 -4 29 -10 3 -5 24 -10 45 -10 21 0 42 -4 45 -10 3 -5 18
-10 32 -10 25 0 111 -25 145 -41 10 -5 33 -9 52 -9 19 0 38 -5 41 -10 3 -6 26
-10 50 -10 24 0 47 -5 50 -10 3 -5 28 -10 54 -10 26 0 51 -4 57 -10 5 -5 32
-12 59 -16 28 -3 59 -10 70 -14 20 -9 77 -17 195 -26 36 -3 74 -9 85 -14 11
-5 54 -11 95 -13 41 -3 98 -10 125 -18 73 -19 1397 -19 1470 0 28 8 86 16 130
18 44 2 84 9 89 14 6 5 40 9 77 9 37 0 71 4 74 10 3 5 31 10 61 10 30 0 62 4
72 9 18 9 114 28 192 38 25 3 49 9 54 14 6 5 27 9 47 9 21 0 40 4 43 9 3 5 23
11 43 14 69 10 143 30 143 38 0 5 18 9 39 9 22 0 43 5 46 10 3 6 19 10 35 10
16 0 39 4 52 9 13 5 50 17 83 26 33 9 68 20 77 26 10 5 27 9 37 9 11 0 23 5
26 10 3 6 19 10 35 10 16 0 32 5 35 10 3 6 16 10 29 10 12 0 27 5 32 10 6 6
19 13 30 15 44 10 94 30 94 37 0 5 11 8 25 8 14 0 33 4 43 9 9 5 35 17 57 26
22 9 47 19 55 24 8 4 36 14 63 22 26 7 47 17 47 21 0 4 8 8 17 8 10 0 51 16
93 36 41 20 84 40 95 44 19 7 127 58 205 95 19 9 58 29 85 45 28 15 55 29 62
29 15 1 137 73 141 83 2 5 12 8 22 8 10 0 20 3 22 8 4 9 76 51 101 59 9 3 17
9 17 14 0 5 4 9 10 9 5 0 33 15 62 33 29 18 65 39 81 46 15 8 27 18 27 23 0 4
4 8 10 8 9 0 72 39 97 60 7 5 17 10 23 10 5 0 10 5 10 10 0 6 4 10 10 10 11 0
113 71 118 82 2 5 9 8 15 8 7 0 30 16 52 35 22 19 45 35 52 35 6 0 13 3 15 8
2 4 28 25 58 47 30 22 57 42 60 45 3 3 21 17 40 32 19 14 45 35 57 47 12 12
26 21 30 21 4 0 24 15 43 33 19 17 52 45 72 60 21 15 57 47 81 70 23 23 61 55
82 71 50 37 573 560 604 603 12 18 43 54 68 80 25 27 57 64 72 83 14 19 41 51
58 70 18 19 33 39 33 43 0 4 10 18 23 31 39 40 67 76 67 85 0 5 3 11 8 13 4 1
25 28 47 58 22 30 43 56 47 58 5 2 8 10 8 18 0 8 5 14 10 14 6 0 10 6 10 13 0
8 11 24 25 37 14 13 25 28 25 35 0 6 9 17 20 25 11 8 20 19 20 24 0 5 11 24
25 42 14 18 25 37 25 43 0 6 5 11 10 11 6 0 10 7 10 15 0 8 5 15 10 15 6 0 10
5 10 12 0 6 11 26 25 44 14 18 25 37 25 43 0 6 5 11 10 11 6 0 10 9 10 19 0
11 4 21 8 23 11 4 82 115 82 127 0 5 3 11 8 13 9 4 51 76 59 100 3 10 9 18 14
18 5 0 9 9 9 20 0 11 5 20 10 20 6 0 10 7 10 16 0 8 11 30 25 48 14 18 25 38
25 44 0 7 5 12 10 12 6 0 10 9 10 20 0 11 5 20 10 20 6 0 10 6 10 13 0 18 28
75 41 82 5 4 9 15 9 26 0 10 5 19 10 19 6 0 10 9 10 20 0 11 3 20 8 20 6 0 28
52 35 88 2 7 9 18 15 24 7 7 12 20 12 30 0 10 5 18 10 18 6 0 10 9 10 20 0 11
3 20 8 20 6 0 28 52 35 88 2 7 9 18 15 24 7 7 12 20 12 29 0 10 5 21 10 24 6
3 10 15 10 26 0 10 5 19 10 19 6 0 10 14 10 30 0 17 4 30 9 30 5 0 12 13 16
30 4 16 11 30 16 30 5 0 9 14 9 30 0 17 5 30 10 30 6 0 10 14 10 30 0 17 5 30
10 30 6 0 10 11 10 23 0 22 15 62 41 109 5 10 9 29 9 42 0 14 5 28 10 31 6 3
10 19 10 36 0 16 5 29 10 29 6 0 10 13 10 28 0 15 4 32 9 38 6 5 12 22 15 38
3 16 10 34 16 40 5 5 10 25 10 42 0 18 5 36 10 39 6 3 10 19 10 35 0 16 5 32
10 35 6 3 10 21 10 39 0 19 7 47 15 62 8 16 15 41 15 57 0 15 5 27 10 27 6 0
10 18 10 39 0 22 5 43 10 46 6 3 10 28 10 56 0 27 5 49 10 49 6 0 10 19 10 43
0 23 7 60 15 82 8 22 14 59 15 82 0 23 4 45 10 48 5 3 10 33 10 65 0 32 5 62
10 65 6 3 10 37 10 75 0 38 5 72 10 75 6 3 10 43 10 89 0 48 5 87 11 93 21 21
31 392 25 913 -3 347 -9 517 -17 545 -7 22 -14 81 -16 130 -2 50 -9 94 -14
100 -5 5 -9 39 -9 76 0 37 -4 71 -10 74 -5 3 -10 31 -10 61 0 30 -4 62 -9 72
-6 9 -13 38 -16 64 -3 26 -10 50 -16 53 -5 4 -9 31 -9 61 0 30 -4 54 -10 54
-5 0 -10 22 -10 49 0 28 -4 53 -10 56 -5 3 -10 21 -10 40 0 19 -4 37 -10 40
-5 3 -10 18 -10 33 0 15 -7 40 -15 56 -8 15 -15 43 -15 62 0 18 -4 36 -10 39
-5 3 -10 24 -10 46 0 21 -4 39 -10 39 -5 0 -10 11 -10 25 0 14 -4 33 -9 43
-15 31 -41 119 -41 141 0 11 -4 21 -10 21 -5 0 -10 13 -10 29 0 17 -4 33 -10
36 -5 3 -10 17 -10 30 0 13 -4 27 -10 30 -5 3 -10 14 -10 23 0 9 -7 30 -15 46
-8 15 -15 35 -15 42 0 8 -4 22 -9 32 -5 9 -14 31 -21 47 -7 17 -19 42 -26 57
-8 14 -14 33 -14 42 0 9 -4 16 -10 16 -5 0 -10 14 -10 30 0 17 -4 30 -10 30
-5 0 -10 11 -10 25 0 14 -4 25 -10 25 -5 0 -10 8 -10 19 0 10 -11 39 -25 65
-14 26 -25 54 -25 62 0 7 -4 14 -10 14 -5 0 -10 11 -10 24 0 14 -4 28 -10 31
-5 3 -10 15 -10 26 0 10 -4 19 -8 19 -9 0 -42 70 -42 88 0 7 -4 12 -10 12 -5
0 -10 9 -10 20 0 11 -4 20 -10 20 -5 0 -10 9 -10 20 0 11 -4 20 -8 20 -9 0
-42 70 -42 88 0 7 -4 12 -10 12 -5 0 -10 9 -10 20 0 11 -4 20 -10 20 -5 0 -10
9 -10 20 0 11 -4 20 -9 20 -5 0 -14 12 -20 28 -13 34 -44 86 -53 90 -5 2 -8
10 -8 17 0 13 -35 73 -60 102 -5 7 -10 19 -10 28 0 8 -4 15 -10 15 -5 0 -10 6
-10 14 0 7 -6 19 -13 25 -8 6 -24 31 -37 56 -13 25 -27 45 -32 45 -4 0 -8 4
-8 10 0 9 -39 72 -60 97 -5 7 -10 17 -10 23 0 5 -4 10 -10 10 -5 0 -10 7 -10
15 0 7 -6 18 -13 22 -6 4 -18 20 -26 35 -8 15 -22 37 -33 47 -10 11 -18 24
-18 28 0 5 -11 20 -25 35 -14 15 -25 33 -25 40 0 8 -9 20 -20 28 -11 8 -20 18
-20 23 0 5 -6 15 -12 22 -30 33 -38 45 -38 55 0 5 -4 10 -8 10 -4 0 -15 12
-24 28 -10 15 -31 41 -48 59 -16 18 -30 36 -30 40 0 4 -20 28 -45 53 -24 25
-44 50 -45 55 0 6 -19 30 -43 55 -23 25 -56 63 -72 85 -16 22 -58 68 -92 102
-35 34 -63 64 -63 68 0 19 -376 395 -395 395 -4 0 -34 28 -68 63 -34 34 -80
76 -102 92 -22 16 -60 49 -85 72 -25 24 -49 43 -55 43 -5 1 -30 21 -55 45 -25
25 -49 45 -53 45 -5 0 -25 16 -45 35 -20 19 -43 35 -49 35 -7 0 -13 5 -13 10
0 6 -7 10 -15 10 -8 0 -15 3 -15 8 0 4 -17 18 -37 32 -20 14 -47 35 -59 48
-13 12 -28 22 -34 22 -6 0 -23 11 -38 25 -15 14 -32 25 -39 25 -7 0 -13 4 -13
8 0 5 -19 19 -42 32 -24 13 -47 29 -51 37 -4 7 -15 13 -22 13 -8 0 -15 5 -15
10 0 6 -7 10 -15 10 -8 0 -15 5 -15 10 0 6 -5 10 -12 10 -6 0 -25 10 -42 23
-17 13 -46 30 -63 38 -18 8 -33 17 -33 21 0 5 -7 8 -15 8 -8 0 -15 3 -15 8 0
8 -30 26 -130 80 -36 19 -67 38 -70 41 -3 4 -20 14 -37 22 -18 8 -33 17 -33
21 0 5 -6 8 -13 8 -18 0 -75 28 -82 41 -4 5 -15 9 -25 9 -10 0 -20 3 -22 8 -4
9 -56 40 -90 53 -16 6 -28 15 -28 20 0 5 -9 9 -19 9 -11 0 -23 5 -26 10 -3 6
-17 10 -31 10 -13 0 -24 5 -24 10 0 6 -6 10 -14 10 -8 0 -53 20 -102 45 -48
25 -92 45 -99 45 -7 0 -33 11 -59 25 -26 14 -54 25 -62 25 -7 0 -14 5 -14 10
0 6 -11 10 -23 10 -13 0 -27 3 -31 7 -6 7 -71 32 -94 37 -7 1 -18 8 -24 14 -7
7 -25 12 -40 12 -15 0 -28 5 -28 10 0 6 -9 10 -19 10 -11 0 -23 5 -26 10 -3 6
-17 10 -31 10 -14 0 -36 7 -49 16 -13 9 -28 13 -33 10 -6 -3 -15 1 -22 9 -7 8
-25 15 -41 15 -16 0 -29 5 -29 10 0 6 -13 10 -29 10 -17 0 -33 5 -36 10 -3 6
-21 10 -39 10 -17 0 -37 5 -42 10 -6 6 -25 12 -44 15 -18 2 -38 9 -43 14 -6 6
-26 11 -44 11 -18 0 -33 5 -33 10 0 6 -16 10 -35 10 -19 0 -35 5 -35 10 0 6
-18 10 -39 10 -22 0 -42 4 -46 9 -3 6 -26 13 -50 17 -25 3 -48 10 -51 15 -3 5
-27 9 -55 9 -27 0 -49 5 -49 10 0 6 -22 10 -49 10 -28 0 -53 5 -56 10 -3 6
-28 10 -54 10 -26 0 -52 5 -58 11 -6 6 -41 14 -77 16 -37 3 -69 10 -72 14 -3
5 -32 9 -65 9 -33 0 -59 4 -59 10 0 6 -35 10 -84 10 -47 0 -88 5 -91 10 -3 6
-49 10 -103 10 -56 0 -114 6 -137 14 -48 16 -650 27 -975 17z m2485 -2892
c160 -160 316 -308 347 -330 80 -55 48 -78 448 319 235 232 311 302 330 302
36 0 440 -404 440 -440 0 -20 -109 -134 -528 -553 -370 -369 -534 -527 -549
-527 -12 0 -25 -4 -28 -10 -3 -5 -28 -10 -55 -10 -27 0 -52 5 -55 10 -3 6 -16
10 -27 10 -15 0 -184 162 -550 528 -412 411 -528 532 -528 552 0 36 404 440
440 440 20 0 89 -64 315 -291z m-1296 -2140 c188 -60 293 -152 376 -329 9 -19
21 -43 26 -52 5 -10 9 -26 9 -36 0 -10 4 -22 9 -28 21 -22 24 -138 24 -894 0
-755 -3 -873 -24 -886 -5 -3 -9 -15 -9 -27 0 -19 -66 -164 -81 -177 -3 -3 -19
-25 -36 -50 -33 -47 -67 -80 -83 -80 -6 0 -10 -4 -10 -10 0 -5 -7 -10 -15 -10
-8 0 -15 -4 -15 -10 0 -5 -5 -10 -12 -10 -6 0 -26 -11 -44 -25 -18 -14 -42
-25 -53 -25 -11 0 -23 -4 -26 -10 -3 -5 -22 -10 -41 -10 -19 0 -34 -4 -34 -10
0 -7 -513 -10 -1519 -10 l-1520 0 -20 -26 c-21 -27 -21 -32 -21 -898 l0 -872
-28 -27 -28 -27 -434 0 -434 0 -28 27 -28 27 0 2225 0 2225 22 23 21 23 2011
0 c1475 0 2019 -3 2045 -11z m2168 -11 l23 -21 0 -2227 0 -2226 -28 -27 -28
-27 -434 0 -434 0 -28 27 -28 27 0 2225 0 2225 22 23 21 23 446 0 c443 0 445
0 468 -22z"/>
<path d="M5392 8773 c-4 -10 -7 -217 -7 -461 0 -383 2 -444 15 -452 9 -6 473
-10 1206 -10 1329 0 1217 -6 1294 72 22 23 40 47 40 55 0 7 5 13 10 13 6 0 10
14 10 30 0 17 5 30 10 30 6 0 10 96 10 269 0 169 -4 272 -10 276 -5 3 -10 15
-10 25 0 21 -31 80 -42 80 -5 0 -8 5 -8 11 0 13 -15 27 -57 57 l-31 22 -1211
0 c-1145 0 -1212 -1 -1219 -17z"/>
</g>
</svg>
